<svg height="496pt" viewBox="0 0 496 496" width="496pt" xmlns="http://www.w3.org/2000/svg"><path d="m104 336c-30.878906 0-56 25.128906-56 56s25.121094 56 56 56 56-25.128906 56-56-25.121094-56-56-56zm0 96c-22.054688 0-40-17.945312-40-40s17.945312-40 40-40 40 17.945312 40 40-17.945312 40-40 40zm0 0"/><path d="m64 64h144v16h-144zm0 0"/><path d="m64 96h144v16h-144zm0 0"/><path d="m64 128h144v16h-144zm0 0"/><path d="m64 160h272v16h-272zm0 0"/><path d="m64 192h272v16h-272zm0 0"/><path d="m64 224h272v16h-272zm0 0"/><path d="m491.0625 240.609375c-3.007812-1.25-6.429688-.554687-8.71875 1.734375l-82.34375 82.34375v-316.6875c0-4.425781-3.585938-8-8-8h-320c-4.414062 0-8 3.574219-8 8v24h-24c-4.414062 0-8 3.574219-8 8v276.6875l-13.65625 13.65625c-3.128906 3.128906-3.128906 8.183594 0 11.3125l8.359375 8.359375c-3.144531 5.753906-5.605469 11.769531-7.375 17.984375h-11.328125c-4.414062 0-8 3.574219-8 8v32c0 4.425781 3.585938 8 8 8h11.34375c1.769531 6.105469 4.265625 12.078125 7.464844 17.878906l-8.464844 8.464844c-3.128906 3.128906-3.128906 8.183594 0 11.3125l24 24c3.128906 3.128906 8.183594 3.128906 11.3125 0l8.464844-8.464844c5.808594 3.199219 11.78125 5.695313 17.878906 7.464844v11.34375c0 4.425781 3.585938 8 8 8h32c4.414062 0 8-3.574219 8-8v-11.328125c6.214844-1.769531 12.230469-4.230469 17.984375-7.375l8.359375 8.359375c3.128906 3.128906 8.183594 3.128906 11.3125 0l13.65625-13.65625h81.375l-18.34375 18.34375c-2.289062 2.289062-2.976562 5.726562-1.734375 8.71875 1.238281 2.992188 4.160156 4.9375 7.390625 4.9375h240c4.414062 0 8-3.574219 8-8v-240c0-3.230469-1.953125-6.160156-4.9375-7.390625zm-411.0625-224.609375h304v324.6875l-16 16v-252.6875c0-2.214844-.894531-4.214844-2.351562-5.664062l-63.984376-63.984376c-1.449218-1.457031-3.449218-2.351562-5.664062-2.351562h-216zm224 43.3125 36.6875 36.6875h-36.6875zm-138.414062 381.582031 7.101562 7.105469-12.6875 12.6875-7.105469-7.101562c-2.65625-2.65625-6.816406-3.097657-9.992187-1.074219-7.621094 4.902343-15.863282 8.289062-24.496094 10.03125-3.726562.761719-6.40625 4.042969-6.40625 7.847656v9.609375h-16v-9.609375c0-3.804687-2.679688-7.085937-6.40625-7.839844-8.355469-1.6875-16.5625-5.101562-24.394531-10.144531-3.167969-2.046875-7.335938-1.589844-9.984375 1.074219l-7.214844 7.207031-12.6875-12.6875 7.207031-7.207031c2.664063-2.664063 3.113281-6.824219 1.074219-9.992188-5.035156-7.808593-8.449219-16.015625-10.152344-24.394531-.753906-3.726562-4.035156-6.40625-7.832031-6.40625h-9.609375v-16h9.609375c3.804687 0 7.078125-2.679688 7.839844-6.40625 1.75-8.648438 5.136719-16.890625 10.03125-24.496094 2.039062-3.167968 1.597656-7.328125-1.066407-9.992187l-7.101562-7.105469 12.6875-12.6875 7.105469 7.101562c2.664062 2.664063 6.832031 3.105469 9.992187 1.074219 7.621094-4.902343 15.863282-8.289062 24.496094-10.03125 3.726562-.761719 6.40625-4.042969 6.40625-7.847656v-9.609375h16v9.609375c0 3.804687 2.679688 7.085937 6.40625 7.839844 8.355469 1.6875 16.5625 5.101562 24.394531 10.144531 3.167969 2.046875 7.328125 1.589844 9.984375-1.074219l7.214844-7.207031 12.6875 12.6875-7.207031 7.207031c-2.664063 2.664063-3.113281 6.824219-1.074219 9.992188 5.035156 7.808593 8.449219 16.015625 10.152344 24.394531.753906 3.726562 4.035156 6.40625 7.832031 6.40625h9.609375v16h-9.609375c-3.804687 0-7.078125 2.679688-7.839844 6.40625-1.75 8.648438-5.136719 16.890625-10.03125 24.496094-2.039062 3.175781-1.597656 7.328125 1.066407 9.992187zm26.414062 7.105469c0-2.046875-.785156-4.097656-2.34375-5.65625l-8.359375-8.359375c3.144531-5.753906 5.605469-11.769531 7.375-17.984375h11.328125c4.414062 0 8-3.574219 8-8v-32c0-4.425781-3.585938-8-8-8h-11.34375c-1.769531-6.105469-4.265625-12.078125-7.464844-17.878906l8.464844-8.464844c3.128906-3.128906 3.128906-8.183594 0-11.3125l-24-24c-3.128906-3.128906-8.183594-3.128906-11.3125 0l-8.464844 8.464844c-5.808594-3.199219-11.78125-5.695313-17.878906-7.464844v-11.34375c0-4.425781-3.585938-8-8-8h-32c-4.414062 0-8 3.574219-8 8v11.328125c-6.214844 1.769531-12.230469 4.230469-17.984375 7.375l-8.359375-8.359375c-1.558594-1.558594-3.609375-2.34375-5.65625-2.34375v-256h240v56c0 4.425781 3.585938 8 8 8h56v260.6875l-16 16v-76.6875c0-.855469-.136719-1.710938-.40625-2.527344l-16-48c-1.097656-3.273437-4.144531-5.472656-7.59375-5.472656s-6.496094 2.199219-7.59375 5.472656l-16 48c-.269531.816406-.40625 1.671875-.40625 2.527344v124.6875l-11.3125 11.3125zm112-120h16v76.6875l-16 16zm.433594-16 7.566406-22.703125 7.566406 22.703125zm175.566406-44.6875v52.6875h-16v16h16v16h-40v8.070312c-2.078125 0-4.128906.746094-5.65625 2.273438l-72 72c-2.289062 2.289062-2.976562 5.726562-1.734375 8.71875 1.238281 2.992188 4.160156 4.9375 7.390625 4.9375h32v32h-16v-16h-16v16h-16v-40h-16v40h-16v-16h-16v16h-36.6875zm0 132.6875v16h-32v-48h32v16h-16v16zm-92.6875 32 44.6875-44.6875v44.6875zm60.6875 48v-16h-16v16h-16v-32h24c4.414062 0 8-3.574219 8-8v-8h32v16h-16v16h16v16zm0 0"/></svg>