<?xml version="1.0"?>
<svg xmlns="http://www.w3.org/2000/svg" viewBox="0 0 512 512" width="512" height="512"><g id="Out_line" data-name="Out line"><path d="M120,264a24.02811,24.02811,0,1,0-23.59155-19.61646L74.43066,257.07227l8,13.85546,21.98865-12.69531A23.88813,23.88813,0,0,0,120,264Zm0-32a8,8,0,1,1-8,8A8.00917,8.00917,0,0,1,120,232Z"/><path d="M192,240a72,72,0,1,0-72,72A72.08124,72.08124,0,0,0,192,240ZM64,240a55.70711,55.70711,0,0,1,11.167-33.519l10.89209,10.89209,11.31348-11.31446L86.481,195.167A55.71747,55.71747,0,0,1,112,184.58057V200h16V184.58057A55.71747,55.71747,0,0,1,153.519,195.167l-10.8916,10.8916,11.31348,11.31446L164.833,206.481A55.99079,55.99079,0,1,1,64,240Z"/><path d="M361.37,177.37988A31.78523,31.78523,0,0,1,384,168h40a72.08281,72.08281,0,0,0,72-72V16H480V96a56.06158,56.06158,0,0,1-56,56H384a47.987,47.987,0,0,0-47.99,48.01v1.2A46.86667,46.86667,0,0,0,382.82007,248h2.25A22.92423,22.92423,0,0,1,407.97,270.87988l.01,2.03028a22.94178,22.94178,0,0,1-6.76,16.33007,22.9241,22.9241,0,0,1-16.32,6.76954L328,296a31.99139,31.99139,0,0,0-32,32v28.68994l-42.06006-42.06006A20.28685,20.28685,0,0,1,268.28,280H288a28,28,0,1,0,0-56h-8a48,48,0,0,1,0-96h4a44,44,0,0,0,0-88H208a16.02116,16.02116,0,0,1-16-16V16H176v8a32.036,32.036,0,0,0,32,32h76a28,28,0,0,1,0,56h-4a64,64,0,0,0,0,128h8a12,12,0,0,1,0,24H268.28a36.28161,36.28161,0,0,0-25.65,61.93994L284.67993,368H152V330.50977a96,96,0,1,0-64,0V368H64v-8a8.00008,8.00008,0,0,0-8-8H24a8.00008,8.00008,0,0,0-8,8V488a8.00008,8.00008,0,0,0,8,8H56a8.00008,8.00008,0,0,0,8-8v-8H448v8a7.9979,7.9979,0,0,0,8,8h32a7.9979,7.9979,0,0,0,8-8V360a7.9979,7.9979,0,0,0-8-8H456a7.9979,7.9979,0,0,0-8,8v8H312V328a15.86016,15.86016,0,0,1,4.68994-11.31006A15.89122,15.89122,0,0,1,328,312l56.89.00977h.01a39.0926,39.0926,0,0,0,39.08-39.10987l-.01-2.02978A38.937,38.937,0,0,0,385.07007,232h-2.25A30.84552,30.84552,0,0,1,352.01,201.21v-1.2A31.7491,31.7491,0,0,1,361.37,177.37988ZM48,480H32V368H48ZM464,368h16V480H464ZM40,240a80,80,0,1,1,80,80A80.09346,80.09346,0,0,1,40,240ZM448,384v80H64V384H96a8.00008,8.00008,0,0,0,8-8V334.66016a96.20372,96.20372,0,0,0,32,0V368H120v16H284.67993l-2.33984,2.33984a8.01538,8.01538,0,0,0,0,11.32032L300.68994,416l-10.34985,10.33984,11.31982,11.32032,16-16a8.01538,8.01538,0,0,0,0-11.32032L299.31006,392l8.01-8Z"/><path d="M328,224V212a28.03146,28.03146,0,0,0-28-28H280a8,8,0,0,1,0-16h24V152H280a24,24,0,0,0,0,48h20a12.01343,12.01343,0,0,1,12,12v12Z"/><rect x="320" y="152" width="16" height="16"/><path d="M360,129a17.019,17.019,0,0,1,17-17h30a33.03734,33.03734,0,0,0,33-33V64H424V79a17.019,17.019,0,0,1-17,17H377a33.03734,33.03734,0,0,0-33,33v15h16Z"/><rect x="424" y="32" width="16" height="16"/><rect x="320" y="272" width="16" height="16"/><path d="M384,264v-8H368v8a8.00917,8.00917,0,0,1-8,8H344v16h16A24.02718,24.02718,0,0,0,384,264Z"/></g></svg>
