<svg height="480pt" viewBox="-24 0 480 480.06488" width="480pt" xmlns="http://www.w3.org/2000/svg"><path d="m224.03125 120.066406v-80c.003906-2.125-.839844-4.160156-2.339844-5.660156s-3.535156-2.34375-5.660156-2.339844h-176c-2.121094-.003906-4.15625.839844-5.65625 2.339844s-2.34375 3.535156-2.34375 5.660156v80c0 2.121094.84375 4.15625 2.34375 5.65625s3.535156 2.34375 5.65625 2.34375h176c2.125 0 4.160156-.84375 5.660156-2.34375s2.34375-3.535156 2.339844-5.65625zm-16-8h-160v-64h160zm0 0"/><path d="m128.03125 144.066406c-44.179688 0-80 35.816406-80 80 0 44.179688 35.820312 80 80 80 44.183594 0 80-35.820312 80-80-.050781-44.164062-35.835938-79.949218-80-80zm0 144c-35.34375 0-64-28.65625-64-64 0-35.347656 28.65625-64 64-64 35.347656 0 64 28.652344 64 64-.039062 35.328125-28.667969 63.957032-64 64zm0 0"/><path d="m106.375 178.410156-24 24c-3.125 3.121094-3.125 8.1875 0 11.3125l56 56c3.125 3.125 8.191406 3.125 11.3125 0l24-24c3.125-3.125 3.125-8.191406 0-11.3125l-56-56c-3.121094-3.125-8.1875-3.125-11.3125 0zm37.65625 74.34375-44.6875-44.6875 12.6875-12.6875 44.6875 44.6875zm0 0"/><path d="m72.03125 320.066406c-13.253906 0-24 10.742188-24 24 0 13.253906 10.746094 24 24 24 13.257812 0 24-10.746094 24-24-.011719-13.25-10.75-23.988281-24-24zm0 32c-4.417969 0-8-3.582031-8-8 0-4.417968 3.582031-8 8-8s8 3.582032 8 8c0 4.414063-3.582031 7.996094-8 8zm0 0"/><path d="m112.03125 64.066406h16v32h-16zm0 0"/><path d="m144.03125 64.066406h16v32h-16zm0 0"/><path d="m176.03125 64.066406h16v32h-16zm0 0"/><path d="m335.085938 59.839844c1.390624-2.601563 1.238281-5.757813-.398438-8.210938l-32-48c-1.570312-2.410156-4.316406-3.789062-7.1875-3.613281s-5.425781 1.878906-6.695312 4.460937c-1.265626 2.582032-1.046876 5.648438.570312 8.027344l23.710938 35.5625h-17.054688c-2.949219 0-5.660156 1.621094-7.050781 4.222656-1.394531 2.601563-1.242188 5.757813.394531 8.214844l32 48c2.472656 3.625 7.402344 4.585938 11.050781 2.152344 3.652344-2.433594 4.660157-7.355469 2.261719-11.027344l-23.710938-35.5625h17.054688c2.953125 0 5.664062-1.625 7.054688-4.226562zm0 0"/><path d="m415.085938 59.839844c1.390624-2.601563 1.238281-5.757813-.398438-8.210938l-32-48c-1.570312-2.410156-4.316406-3.789062-7.1875-3.613281s-5.425781 1.878906-6.695312 4.460937c-1.265626 2.582032-1.046876 5.648438.570312 8.027344l23.710938 35.5625h-17.054688c-2.949219 0-5.660156 1.621094-7.050781 4.222656-1.394531 2.601563-1.242188 5.757813.394531 8.214844l32 48c1.574219 2.40625 4.320312 3.785156 7.191406 3.609375s5.425782-1.878906 6.691406-4.460937c1.265626-2.582032 1.050782-5.648438-.570312-8.023438l-23.710938-35.5625h17.054688c2.953125 0 5.664062-1.625 7.054688-4.226562zm0 0"/><path d="m8.03125 416.066406h104v24c.027344 22.078125 17.921875 39.972656 40 40h224c22.082031-.027344 39.976562-17.921875 40-40v-184h8c2.125 0 4.160156-.84375 5.660156-2.34375s2.34375-3.535156 2.339844-5.65625v-32c.003906-2.125-.839844-4.160156-2.339844-5.660156s-3.535156-2.34375-5.660156-2.339844h-8v-24c-.03125-10.140625-6.4375-19.160156-16-22.527344v-25.472656c0-4.417968-3.582031-8-8-8s-8 3.582032-8 8v25.472656c-9.558594 3.367188-15.96875 12.386719-16 22.527344v24h-8c-2.121094-.003906-4.15625.839844-5.65625 2.339844s-2.34375 3.535156-2.34375 5.660156c.003906-2.125-.839844-4.160156-2.339844-5.660156s-3.535156-2.34375-5.660156-2.339844h-8v-24c-.03125-10.140625-6.4375-19.160156-16-22.527344v-25.472656c0-4.417968-3.582031-8-8-8s-8 3.582032-8 8v25.472656c-9.558594 3.367188-15.96875 12.386719-16 22.527344v24h-8c-2.121094-.003906-4.15625.839844-5.65625 2.339844s-2.34375 3.535156-2.34375 5.660156v32c0 2.121094.84375 4.15625 2.34375 5.65625s3.535156 2.34375 5.65625 2.34375h8v112h-32v-336c-.015625-17.667968-14.332031-31.9843748-32-31.9999998h-192c-17.664062.015625-31.9804688 14.3320318-32 31.9999998v376c0 2.121094.84375 4.15625 2.34375 5.65625s3.535156 2.34375 5.65625 2.34375zm392 24c-.011719 13.246094-10.75 23.984375-24 24h-224c-13.246094-.015625-23.984375-10.753906-24-24v-73.476562c5.152344 1.964844 10.847656 1.964844 16 0v65.476562c.011719 8.832032 7.167969 15.988282 16 16h208c8.832031-.011718 15.988281-7.167968 16-16v-80h16zm-272-96c0-4.417968 3.582031-8 8-8s8 3.582032 8 8c0 4.417969-3.582031 8-8 8-4.414062-.003906-7.996094-3.585937-8-8zm272-8h-16v-80h16zm-16-152c0-4.417968 3.582031-8 8-8s8 3.582032 8 8v24h-16zm-16 40h48v16h-48zm-24 32c2.125 0 4.160156-.84375 5.660156-2.34375s2.34375-3.535156 2.339844-5.65625c0 2.121094.84375 4.15625 2.34375 5.65625s3.535156 2.34375 5.65625 2.34375h8v176h-208v-16h144c17.667969-.019531 31.984375-14.335937 32-32v-128zm-24 80h-16v-80h16zm-16-152c0-4.417968 3.582031-8 8-8s8 3.582032 8 8v24h-16zm-16 40h48v16h-48zm0 160c8.832031-.011718 15.988281-7.167968 16-16v-16h16v32c-.011719 8.832032-7.167969 15.988282-16 16h-96c-8.832031-.011718-15.988281-7.167968-16-16v-17.476562c5.152344 1.964844 10.847656 1.964844 16 0v1.476562c.011719 8.832032 7.167969 15.988282 16 16zm-96-40c0-4.417968 3.582031-8 8-8s8 3.582032 8 8c0 4.417969-3.582031 8-8 8-4.414062-.003906-7.996094-3.585937-8-8zm-176-312c.011719-8.832031 7.167969-15.988281 16-16h192c8.832031.011719 15.988281 7.167969 16 16v336h-16v-24c0-13.257812-10.742188-24-24-24-13.253906 0-24 10.742188-24 24v40c.03125 5.632813 1.570312 11.15625 4.449219 16h-20.449219v-56c0-13.257812-10.742188-24-24-24-13.253906 0-24 10.742188-24 24v56h-96zm0 0"/></svg>